<?xml version="1.0" encoding="UTF-8"?>
<svg id="b" data-name="Layer 2" xmlns="http://www.w3.org/2000/svg" width="644.657" height="62.389" xmlns:xlink="http://www.w3.org/1999/xlink" viewBox="0 0 644.657 62.389">
  <defs>
    <clipPath id="d">
      <polygon points="19.174 50.268 2.502 2.203 55.4 2.203 57.513 50.268 19.174 50.268" fill="none"/>
    </clipPath>
    <clipPath id="e">
      <polygon points="625.357 50.268 642.029 2.203 589.131 2.203 587.019 50.268 625.357 50.268" fill="none"/>
    </clipPath>
    <image id="f" width="512" height="512" xlink:href="G:\Text Effects\555416-rectangular-country-simple-flags\555416-rectangular-country-simple-flags\png\198-argentina.png"/>
  </defs>
  <g id="c" data-name="Layer 1">
    <path d="M630.97,35.881h-217.548v21.29h208.372c1.09,0,2.06-.691,2.416-1.721l6.76-19.569Z" fill="#e01e28"/>
    <path d="M13.938,35.881h217.548v21.29H23.114c-1.09,0-2.06-.691-2.416-1.721l-6.76-19.569Z" fill="#1f6cdd"/>
    <polygon points="643.232 1.002 322.329 1.389 1.426 1.002 1.705 1.776 1.426 1.776 18.071 50.163 19.619 51.324 225.648 51.324 229.813 61.389 232.135 61.389 412.522 61.389 414.845 61.389 419.009 51.324 625.038 51.324 626.587 50.163 643.232 1.776 642.952 1.776 643.232 1.002" fill="#f4f4f4" stroke="#c9c9c9" stroke-miterlimit="10" stroke-width="2"/>
    <g>
      <g>
        <path d="M305.387,10.717c.099-1.032-.293-1.423-.292-1.423.978-.205,1.958-.392,2.938-.561,0,0-.481.757-.553,1.594-.358,4.163-.917,8.358-1.762,12.599.778-.117,1.558-.226,2.339-.327.026-.149.051-.299.076-.448.12-.716-.015-1.356-.317-1.839.86-.118,1.722-.226,2.584-.323.137.579.161,1.215.066,1.886-.048.343-.098.686-.149,1.029-.163,1.074.244,1.738.246,1.738-2.764.28-5.516.659-8.248,1.136,0,0,.67-.743.926-1.845,1.042-4.465,1.72-8.863,2.146-13.215Z" fill="#501391"/>
        <path d="M319.262,22.305c-.044,1.07.455,1.771.457,1.771-1.164.026-2.327.069-3.49.13.001,0,.585-.741.655-1.812.15-2.202.273-4.402.375-6.601-.358.085-.716.15-1.071.172-.397.024-1.14-.057-1.139-.078-.147,2.213-.325,4.429-.541,6.647-.107,1.072.32,1.754.322,1.754-1.154.074-2.306.165-3.457.274,0,0,.63-.765.763-1.838.396-3.13.695-6.251.918-9.364.213-2.774,1.879-5.558,4.313-5.709.907-.054,1.814-.093,2.722-.117,0,0-.462.749-.48,1.774-.07,4.331-.18,8.664-.346,12.998ZM317.364,13.319c.043-1.092.08-2.183.113-3.275-1.354.077-2.181,1.702-2.268,3.191-.004.074-.008.148-.012.223,0-.023.703.169,1.114.144.369-.023.721-.133,1.054-.284Z" fill="#501391"/>
        <path d="M328.084,7.701c.028.949.06,1.899.096,2.849,0,0-.658-.535-1.597-.58-.353-.017-.706-.032-1.059-.045.082,4.138.208,8.277.394,12.418.045,1.048.587,1.779.588,1.779-1.148-.041-2.297-.065-3.446-.072.001,0,.496-.71.478-1.757-.063-4.14-.105-8.28-.133-12.419-.42-.005-.84-.007-1.26-.006-.759.001-1.384.504-1.384.504.01-.951.018-1.902.026-2.854,2.433-.045,4.867.016,7.298.184Z" fill="#501391"/>
        <path d="M332.535,22.725c.134,1.073.762,1.838.763,1.838-1.151-.109-2.303-.2-3.457-.274.002,0,.429-.682.322-1.754-.431-4.415-.712-8.818-.89-13.214-.035-.845-.492-1.569-.491-1.569.992.077,1.983.171,2.974.284,0,0-.431.437-.377,1.481.231,4.388.597,8.788,1.157,13.208Z" fill="#501391"/>
        <path d="M341.384,23.882c.249,1.08.958,1.894.958,1.894-1.136-.198-2.276-.38-3.419-.544.002,0,.337-.649.114-1.727-.27-1.318-.512-2.631-.729-3.94-.965-.823-1.82-1.752-2.578-2.752.26,2.114.574,4.235.951,6.365.188,1.076.855,1.863.856,1.863-1.145-.151-2.293-.284-3.442-.401.002,0,.386-.666.224-1.74-.657-4.424-1.086-8.822-1.357-13.202-.053-.842-.521-1.582-.521-1.582.99.121,1.979.259,2.968.415,0,0-.402.418-.335,1.346.154,2.145,1.164,4.471,2.742,6.416-.27-1.998-.486-3.988-.657-5.97-.073-.837-.553-1.594-.553-1.594.987.17,1.973.359,2.958.565.001,0-.411.387-.312,1.419.424,4.337,1.098,8.721,2.133,13.17Z" fill="#501391"/>
      </g>
      <g>
        <path d="M292.174,45.154c-.154,1.17.209,1.884.21,1.884-2.55.362-5.094.771-7.631,1.226,0,0,.61-.869.795-2.041.946-5.978,1.215-11.83.854-17.565-.071-1.125-.588-1.757-.587-1.757,2.468-.5,4.942-.948,7.422-1.345,0,0-.415.832-.358,1.947.019.371.036.743.05,1.115.028.713-.054,1.419-.246,2.094-.813.128-1.626.262-2.437.401.354-.632.557-1.382.525-2.14-.007-.158-.014-.316-.021-.473-.719.123-1.438.251-2.157.383.275,5.351.037,10.791-.748,16.326.734-.123,1.468-.241,2.203-.356.022-.162.043-.325.063-.487.099-.779-.046-1.472-.355-1.995.824-.132,1.648-.259,2.474-.381.142.624.17,1.314.083,2.044-.044.373-.091.747-.14,1.121Z" fill="#501391"/>
        <path d="M300.512,44.116c-.112,1.168.286,1.898.288,1.898-1.065.108-2.13.224-3.194.349,0,0,.563-.835.684-2.003.239-2.288.413-4.569.522-6.842-.321-.106-.666-.137-1.035-.091-.41.051-.783.194-1.139.384-.12,2.263-.309,4.535-.569,6.816-.135,1.169.245,1.891.246,1.891-1.063.131-2.125.27-3.187.416,0,0,.579-.846.723-2.016.594-4.817.846-9.585.773-14.307-.014-.908-.487-1.579-.487-1.579,1.025-.155,2.051-.302,3.078-.44-.001,0-.451.589-.434,1.714.023,1.612.011,3.229-.036,4.851.37-.144.738-.24,1.126-.288.347-.044.713-.04,1.038-.007.043-1.616.054-3.228.033-4.836-.012-.96-.482-1.598-.482-1.598,1.027-.131,2.056-.254,3.084-.369,0,0-.453.677-.441,1.711.055,4.754-.138,9.535-.595,14.345Z" fill="#501391"/>
        <path d="M308.902,43.411c-.07,1.166.365,1.914.365,1.914-1.076.066-2.151.14-3.225.222,0,0,.552-.816.631-1.982.164-2.398.281-4.793.352-7.184-.352.1-.702.176-1.052.204-.391.031-1.125-.05-1.124-.074-.081,2.406-.215,4.816-.403,7.232-.092,1.167.302,1.907.303,1.907-1.067.088-2.134.185-3.199.289,0,0,.569-.827.671-1.995.298-3.406.475-6.799.534-10.181.057-3.016,1.599-6.009,4.141-6.222.942-.078,1.884-.148,2.827-.211,0,0-.459.83-.452,1.943.028,4.702-.092,9.414-.369,14.137ZM307.085,33.692c.018-1.186.025-2.372.021-3.556-1.39.112-2.158,1.876-2.186,3.495-.001.081-.003.161-.004.242,0-.024.712.179,1.121.145.368-.031.718-.155,1.048-.326Z" fill="#501391"/>
        <path d="M321.757,42.983c-.004,1.165.462,1.942.463,1.942-1.063,0-2.127.009-3.19.025,0,0,.48-.784.493-1.949.055-4.5.081-9,.078-13.5-1.476.022-2.148,1.282-2.155,3.028-.014,1.788-.036,3.577-.066,5.366-.016,1.165.429,1.932.429,1.932-1.041.023-2.081.054-3.121.092,0,0,.478-.794.499-1.959.034-1.788.055-3.576.065-5.364.01-1.746-.691-2.962-2.165-2.892.01,4.493-.076,8.99-.263,13.492-.05,1.166.401,1.922.402,1.922-1.069.046-2.139.099-3.207.161,0,0,.516-.805.575-1.971.246-4.803.351-9.597.321-14.384-.005-.92-.467-1.643-.467-1.642.15-.009.301-.019.451-.028.724-.044,1.449-.084,2.173-.12,1.415-.07,2.529.497,3.27,1.517.754-1.067,1.858-1.705,3.275-1.726.718-.01,1.437-.017,2.155-.019.151,0,.301,0,.452,0,0,0-.431.51-.451,1.652.001,4.808-.004,9.616-.016,14.423Z" fill="#501391"/>
        <path d="M329.956,30.579c.004,2.937-1.702,5.359-4.323,5.364.015,2.363.041,4.727.076,7.09.016,1.141.498,1.926.498,1.926-1.07-.019-2.141-.031-3.211-.034,0,0,.485-.775.479-1.916-.024-4.719-.034-9.437-.032-14.156,0-1.166-.47-1.945-.47-1.945,2.483.009,4.967.066,7.448.173,0,0-.458.708-.462,1.8-.002.566-.003,1.132-.003,1.698ZM327.785,29.559c-.724-.021-1.448-.037-2.171-.05-.001,1.287,0,2.573.005,3.86,1.478.026,2.166-1.334,2.165-3.083,0-.243,0-.485,0-.728Z" fill="#501391"/>
        <path d="M334.077,43.31c.059,1.166.596,1.972.596,1.972-1.069-.062-2.138-.116-3.207-.162,0,0,.43-.757.38-1.923-.2-4.802-.285-9.598-.261-14.389.005-.921-.438-1.694-.438-1.694,1.032.048,2.064.105,3.096.171,0,0-.48.503-.487,1.641-.03,4.787.075,9.581.321,14.384Z" fill="#501391"/>
        <path d="M342.461,43.971c.1,1.143.648,1.968.648,1.968-2.562-.251-5.128-.455-7.697-.613,0,0,.435-.748.367-1.89-.278-4.723-.399-9.435-.371-14.137.007-1.161-.451-1.967-.451-1.967,2.48.167,4.957.383,7.431.648,0,0-.469.722-.48,1.878-.042,4.682.138,9.385.554,14.113ZM339.738,30.275c-.722-.066-1.444-.128-2.166-.185-.015,4.27.113,8.552.392,12.845.741.055,1.481.115,2.221.178-.319-4.294-.465-8.573-.447-12.838Z" fill="#501391"/>
        <path d="M350.783,44.915c.144,1.17.744,2.019.744,2.019-1.061-.147-2.123-.286-3.187-.416.001,0,.36-.724.225-1.893-.163-1.429-.298-2.854-.405-4.276-.881-.856-1.657-1.839-2.34-2.905.109,2.297.284,4.601.525,6.914.121,1.168.706,2.006.705,2.006-1.064-.124-2.129-.24-3.194-.349.001,0,.379-.733.266-1.901-.456-4.81-.649-9.591-.594-14.345.011-.914-.42-1.709-.42-1.709,1.029.114,2.057.237,3.084.369,0,0-.465.47-.48,1.478-.034,2.329.821,4.834,2.234,6.888-.095-2.172-.127-4.335-.096-6.49.013-.91-.413-1.712-.413-1.712,1.027.138,2.053.285,3.078.44.001,0-.489.453-.507,1.576-.073,4.722.179,9.49.773,14.307Z" fill="#501391"/>
        <path d="M359.121,46.296c.187,1.173.784,1.968.783,1.968-2.537-.455-5.081-.864-7.631-1.226.001,0,.343-.717.192-1.863-.049-.374-.095-.747-.14-1.121-.09-.755-.041-1.441.101-2.065.825.122,1.65.249,2.474.381-.329.519-.454,1.216-.352,2.019.02.154.04.308.06.463.728.114,1.455.231,2.182.352-.145-1.024-.271-2.045-.379-3.062-.407-3.621-4.866-8.826-4.695-13.217.01-.468.024-.936.041-1.404.059-1.138-.335-1.967-.336-1.967,2.479.397,4.954.846,7.421,1.345,0,0-.538.651-.609,1.776-.016.361-.029.722-.04,1.083-.036.752-.179,1.364-.396,1.964-.81-.154-1.621-.302-2.432-.445.397-.501.621-1.173.656-1.928.007-.157.015-.314.023-.472-.712-.13-1.424-.257-2.136-.379-.008.174-.016.347-.023.521-.145,3.548,4.162,8.607,4.724,13.505.141,1.251.312,2.508.513,3.77Z" fill="#501391"/>
      </g>
      <g>
        <path d="M303.938,56.236c-.059.539.172.882.173.882-1.42.09-2.839.192-4.258.303,0,0,.305-.381.375-.921.284-2.187.568-4.375.853-6.562.071-.551-.13-.87-.13-.87,1.35-.106,2.7-.202,4.05-.288,0,0-.295.376-.353.904-.019.176-.038.352-.057.528-.093.866-.573,1.666-1.272,2.227.58.463.897,1.224.804,2.089-.062.569-.123,1.139-.185,1.708ZM302.014,51.929c.717-.242,1.3-.906,1.383-1.637.009-.075.017-.15.026-.225-.397.027-.794.056-1.191.085-.073.592-.145,1.185-.218,1.777ZM302.735,56.027c.055-.472.109-.945.164-1.417.085-.742-.36-1.325-1.034-1.465-.121.99-.243,1.98-.365,2.97.412-.03.823-.06,1.235-.088Z" fill="#501391"/>
        <path d="M309.572,48.527s-.265.258-.309.797c-.021.258-.041.516-.062.774-.064.808-.554,1.579-1.384,2.215-.109,1.242-.217,2.484-.326,3.726-.046.528.181.874.181.873-.591.03-1.182.062-1.773.096,0,0,.304-.375.354-.903.118-1.243.235-2.485.353-3.728-.68-.498-1.074-1.277-.991-2.086.026-.258.053-.517.079-.775.055-.539-.166-.771-.165-.771.558-.034,1.116-.067,1.675-.098,0,0-.242.326-.312.71-.026.27-.051.539-.077.809-.044.46.154.862.491,1.135.378-.311.652-.739.692-1.199.024-.269.047-.539.071-.808.011-.38-.185-.683-.185-.683.562-.03,1.124-.058,1.686-.084Z" fill="#501391"/>
        <path d="M312.339,49.183c.032-.527-.198-.764-.198-.764.559-.021,1.117-.04,1.676-.058,0,0-.264.355-.288.781-.115,2.119-.229,4.237-.344,6.356.412-.013.824-.026,1.237-.037.004-.075.007-.15.01-.224.017-.358-.095-.691-.291-.954.463-.013.927-.026,1.391-.037.104.3.149.623.136.959-.007.172-.014.344-.02.515-.021.538.235.89.235.89-1.422.032-2.843.075-4.265.128,0,0,.279-.335.312-.884.136-2.224.273-4.447.409-6.671Z" fill="#501391"/>
        <path d="M320.456,55.659c-.006.526.249.883.249.883-1.422.008-2.844.027-4.266.056,0,0,.283-.364.3-.891.072-2.177.144-4.354.216-6.531.017-.538-.228-.891-.228-.891,1.352-.028,2.705-.046,4.058-.053,0,0-.25.36-.256.897-.024,2.176-.048,4.353-.072,6.529ZM319.331,49.432c-.398.004-.796.01-1.194.016-.051,1.979-.102,3.958-.153,5.937.412-.006.825-.012,1.237-.016.036-1.979.073-3.957.109-5.936Z" fill="#501391"/>
        <path d="M325.243,55.657c.009.538.285.899.286.899-1.422-.016-2.844-.021-4.266-.016,0,0,.261-.359.263-.897.01-2.176.021-4.353.031-6.529.002-.537-.242-.884-.242-.884,1.353-.005,2.705,0,4.058.015,0,0-.25.356-.242.882.003.175.006.351.009.526.006.336-.045.66-.153.962-.454-.004-.907-.008-1.361-.01.202-.268.323-.603.319-.961,0-.075-.001-.149-.002-.224-.398-.002-.796-.004-1.194-.004.005,1.979.01,3.957.015,5.936.412,0,.825.002,1.237.005,0-.075-.001-.149-.002-.224-.004-.358-.135-.695-.345-.965.464.002.927.005,1.391.01.121.304.184.629.19.965.003.172.006.343.009.515Z" fill="#501391"/>
        <path d="M330.053,55.758c.024.527.298.892.298.892-1.422-.04-2.843-.069-4.265-.088,0,0,.262-.355.249-.881-.052-2.177-.103-4.353-.155-6.53-.013-.538-.278-.9-.278-.899,1.352.018,2.705.046,4.057.083,0,0-.229.352-.205.89.099,2.178.199,4.355.298,6.533ZM328.574,49.486c-.398-.009-.796-.017-1.193-.025.061,1.979.123,3.958.184,5.937.412.008.825.016,1.237.025-.076-1.979-.152-3.959-.227-5.938Z" fill="#501391"/>
        <path d="M334.85,55.951c.04.538.321.875.322.875-1.421-.064-2.842-.117-4.264-.16,0,0,.24-.351.213-.878-.009-.172-.018-.344-.027-.516-.018-.347.035-.67.135-.969.463.015.927.03,1.39.047-.204.261-.3.593-.278.963.004.071.008.142.013.213.408.014.817.03,1.225.046-.031-.471-.063-.942-.094-1.413-.117-1.674-2.556-2.174-2.657-4.244-.015-.221-.03-.441-.045-.662-.028-.538-.293-.904-.292-.904,1.352.041,2.704.091,4.056.152,0,0-.23.348-.191.886.017.172.033.344.05.516.027.359-.019.659-.11.957-.453-.02-.907-.038-1.36-.056.198-.261.288-.593.264-.952-.005-.075-.01-.149-.015-.224-.394-.016-.788-.03-1.182-.044.005.082.01.164.015.247.095,1.678,2.532,2.11,2.706,4.38.043.58.086,1.159.128,1.739Z" fill="#501391"/>
        <path d="M339.629,56.168c.055.539.361.915.361.915-1.42-.088-2.84-.165-4.261-.231,0,0,.233-.313.188-.863-.177-2.203-.353-4.406-.53-6.609-.043-.539-.313-.853-.313-.853,1.351.063,2.703.137,4.053.22,0,0-.22.344-.166.872.018.176.036.352.054.528.036.349.011.66-.071.956-.453-.027-.906-.053-1.359-.078.179-.258.271-.588.237-.947-.007-.075-.014-.15-.021-.224-.397-.022-.795-.044-1.192-.065.052.595.104,1.19.156,1.785.004,0,.007,0,.011,0,.535.028.887-.198.887-.198.052.561.104,1.123.157,1.684,0,0-.402-.279-.94-.307-.004,0-.008,0-.011,0,.087.995.174,1.99.261,2.986.412.021.824.044,1.236.067-.007-.075-.014-.15-.021-.225-.034-.359-.194-.703-.427-.984.463.026.926.052,1.389.08.146.31.237.64.272.976.018.172.035.344.053.517Z" fill="#501391"/>
        <path d="M344.42,56.511c.068.529.385.91.385.91-.59-.046-1.18-.091-1.771-.134,0,0,.226-.34.161-.869-.07-.574-.141-1.147-.211-1.721-.103-.743-.686-1.411-1.405-1.65.126,1.094.253,2.189.379,3.283.061.528.349.905.349.905-.587-.041-1.173-.08-1.76-.118,0,0,.222-.321.162-.871-.236-2.184-.473-4.368-.709-6.552-.059-.539-.343-.915-.343-.915,1.35.086,2.7.182,4.05.288,0,0-.209.34-.139.88.036.244.071.488.107.733.101.777-.272,1.438-.785,1.868.691.564,1.194,1.373,1.318,2.24.071.574.141,1.147.212,1.721ZM342.426,50.152c-.397-.029-.794-.057-1.191-.085.069.596.138,1.192.207,1.788.639-.134,1.107-.713,1.023-1.388-.013-.105-.026-.21-.039-.315Z" fill="#501391"/>
      </g>
    </g>
    <g opacity=".36">
      <g>
        <polygon points="408.736 55.107 423.262 6.203 370.485 6.203 370.485 55.107 408.736 55.107" fill="#c9c9c9"/>
        <polygon points="235.849 55.107 221.324 6.203 274.101 6.203 274.101 55.107 235.849 55.107" fill="#c9c9c9"/>
      </g>
    </g>
    <path d="M244.687,40.633c-1.861-1.116-3.309-2.704-4.346-4.764-1.037-2.06-1.555-4.458-1.555-7.197,0-2.711.519-5.083,1.555-7.117s2.485-3.601,4.346-4.705c1.86-1.103,3.987-1.655,6.379-1.655s4.518.552,6.379,1.655c1.86,1.104,3.309,2.671,4.346,4.705s1.555,4.406,1.555,7.117c0,2.738-.519,5.137-1.555,7.197-1.037,2.06-2.485,3.648-4.346,4.764-1.861,1.117-3.987,1.675-6.379,1.675s-4.519-.558-6.379-1.675ZM255.173,34.314c1.037-1.396,1.555-3.275,1.555-5.642,0-2.312-.518-4.152-1.555-5.522-1.037-1.369-2.406-2.053-4.106-2.053s-3.07.685-4.107,2.053c-1.037,1.37-1.555,3.209-1.555,5.522,0,2.366.518,4.246,1.555,5.642s2.405,2.093,4.107,2.093,3.07-.698,4.106-2.093Z" fill="#501391"/>
    <path d="M386.106,40.633c-1.86-1.116-3.309-2.704-4.346-4.764-1.036-2.06-1.555-4.458-1.555-7.197,0-2.711.519-5.083,1.555-7.117,1.037-2.033,2.485-3.601,4.346-4.705,1.86-1.103,3.987-1.655,6.38-1.655s4.518.552,6.379,1.655c1.86,1.104,3.309,2.671,4.346,4.705,1.036,2.033,1.555,4.406,1.555,7.117,0,2.738-.519,5.137-1.555,7.197-1.037,2.06-2.485,3.648-4.346,4.764-1.861,1.117-3.987,1.675-6.379,1.675s-4.52-.558-6.38-1.675ZM396.593,34.314c1.036-1.396,1.555-3.275,1.555-5.642,0-2.312-.519-4.152-1.555-5.522-1.037-1.369-2.406-2.053-4.106-2.053s-3.07.685-4.107,2.053c-1.036,1.37-1.555,3.209-1.555,5.522,0,2.366.519,4.246,1.555,5.642,1.037,1.396,2.405,2.093,4.107,2.093s3.069-.698,4.106-2.093Z" fill="#501391"/>
    <g>
      <path d="M72.766,36.051c-1.023-.456-1.891-1.077-2.603-1.862l3.096-3.096c.328.42.748.763,1.26,1.027.511.265,1.059.397,1.644.397.912,0,1.647-.329,2.205-.986.557-.657.835-1.543.835-2.657v-10.381h4.383v10.545c0,2.429-.644,4.319-1.932,5.67-1.287,1.352-3.108,2.027-5.464,2.027-1.261,0-2.401-.229-3.424-.685Z" fill="#501391"/>
      <path d="M89.159,35.229c-.94-1.004-1.411-2.328-1.411-3.972v-9.094h4.273v8.464c0,.639.196,1.169.589,1.588.393.42.908.63,1.548.63.785,0,1.456-.315,2.013-.945.558-.63.836-1.411.836-2.342v-7.396h4.272v14.134h-3.834v-2.164c-.493.804-1.123,1.438-1.891,1.904-.767.466-1.644.699-2.629.699-1.571,0-2.826-.502-3.767-1.507Z" fill="#501391"/>
      <path d="M108.168,42.036c-1.104-.447-2.031-1.027-2.779-1.739l2.574-2.575c.42.383.949.708,1.589.973.639.264,1.278.397,1.917.397,1.114,0,2.004-.292,2.671-.876.666-.585,1-1.416,1-2.493v-1.178c-.548.566-1.16,1-1.835,1.301-.676.301-1.37.452-2.082.452-1.242,0-2.374-.31-3.396-.931-1.023-.621-1.831-1.488-2.424-2.603-.594-1.113-.891-2.374-.891-3.78,0-1.351.311-2.575.932-3.67.62-1.096,1.456-1.954,2.506-2.575,1.05-.621,2.205-.932,3.465-.932.804,0,1.562.183,2.273.548.713.366,1.343.886,1.891,1.562v-1.753h3.834v13.559c0,1.37-.338,2.584-1.013,3.643-.676,1.059-1.603,1.88-2.78,2.465-1.178.584-2.479.876-3.903.876-1.26,0-2.442-.224-3.548-.671ZM114.4,31.669c.565-.658.849-1.552.849-2.685,0-1.022-.283-1.858-.849-2.506-.566-.648-1.324-.972-2.274-.972-.931,0-1.712.338-2.342,1.013-.63.676-.944,1.498-.944,2.465,0,1.096.287,1.981.862,2.657.575.676,1.329,1.014,2.26,1.014,1.059,0,1.872-.329,2.438-.986Z" fill="#501391"/>
      <path d="M125.206,36.188c-.777-.402-1.37-.945-1.781-1.63-.41-.685-.616-1.438-.616-2.26,0-1.351.603-2.47,1.808-3.355,1.206-.886,3.068-1.401,5.588-1.548l1.918-.109c0-.675-.233-1.205-.698-1.589-.466-.383-1.119-.575-1.959-.575-.749,0-1.488.124-2.219.37-.73.246-1.379.562-1.944.945l-2.384-2.383c.949-.712,2.018-1.278,3.205-1.698,1.187-.419,2.42-.63,3.698-.63,1.314,0,2.465.242,3.451.726s1.743,1.15,2.273,2c.529.849.794,1.804.794,2.862v8.984h-3.835v-1.698c-.547.694-1.219,1.232-2.013,1.616-.795.383-1.648.575-2.562.575-1.041,0-1.949-.201-2.725-.603ZM131.149,32.559c.648-.593.973-1.401.973-2.424v-.082l-1.425.082c-2.41.146-3.615.804-3.615,1.972,0,.366.154.681.466.945.31.265.721.397,1.232.397.932,0,1.721-.297,2.369-.89Z" fill="#501391"/>
      <path d="M142.64,35.764c-1.023-.648-1.826-1.547-2.41-2.698-.585-1.151-.877-2.456-.877-3.917,0-1.388.315-2.644.945-3.767s1.479-2,2.547-2.629,2.232-.945,3.492-.945c.694,0,1.356.142,1.986.425.63.283,1.2.689,1.712,1.219v-7.149h4.273v19.996h-3.835v-1.808c-.566.73-1.232,1.287-2,1.671s-1.57.575-2.41.575c-1.26,0-2.401-.325-3.424-.973ZM149.337,31.929c.575-.703.862-1.629.862-2.78,0-1.059-.283-1.931-.849-2.616-.566-.685-1.324-1.027-2.273-1.027-.932,0-1.722.347-2.37,1.041-.647.694-.972,1.562-.972,2.603,0,1.114.292,2.031.876,2.752.585.722,1.324,1.082,2.219,1.082,1.096,0,1.932-.351,2.507-1.055Z" fill="#501391"/>
      <path d="M161.278,35.818c-1.159-.648-2.063-1.547-2.711-2.698-.648-1.15-.973-2.465-.973-3.944,0-1.424.324-2.703.973-3.835.647-1.132,1.552-2.018,2.711-2.657,1.16-.639,2.479-.959,3.959-.959s2.798.32,3.958.959c1.159.639,2.062,1.525,2.711,2.657.648,1.132.973,2.411.973,3.835,0,1.479-.324,2.794-.973,3.944s-1.552,2.05-2.711,2.698c-1.16.648-2.479.973-3.958.973s-2.799-.325-3.959-.973ZM167.593,31.915c.603-.693.903-1.606.903-2.739,0-1.096-.297-1.972-.89-2.63-.594-.657-1.384-.986-2.369-.986s-1.776.329-2.37.986c-.594.658-.89,1.534-.89,2.63,0,1.132.301,2.045.903,2.739.603.694,1.388,1.041,2.356,1.041s1.753-.347,2.355-1.041Z" fill="#501391"/>
      <path d="M176.111,22.164h4.272v2.931c.292-.913.817-1.689,1.575-2.328s1.593-.959,2.507-.959c.675,0,1.323.119,1.944.356s1.169.548,1.644.931l-3.424,3.424c-.493-.292-1.032-.438-1.616-.438-.749,0-1.374.342-1.876,1.027-.503.685-.754,1.575-.754,2.671v6.519h-4.272v-14.134Z" fill="#501391"/>
      <path d="M197.694,24.054h-3.287v-1.78l3.78-3.78h3.862l.027,17.804h-4.383v-12.244Z" fill="#501391"/>
    </g>
    <g>
      <path d="M435.088,36.051c-1.023-.456-1.891-1.077-2.603-1.862l3.096-3.096c.328.42.748.763,1.26,1.027.511.265,1.059.397,1.644.397.912,0,1.647-.329,2.205-.986.557-.657.835-1.543.835-2.657v-10.381h4.383v10.545c0,2.429-.644,4.319-1.932,5.67-1.287,1.352-3.108,2.027-5.464,2.027-1.261,0-2.401-.229-3.424-.685Z" fill="#501391"/>
      <path d="M451.481,35.229c-.94-1.004-1.411-2.328-1.411-3.972v-9.094h4.273v8.464c0,.639.196,1.169.589,1.588.393.42.908.63,1.548.63.785,0,1.456-.315,2.013-.945.558-.63.836-1.411.836-2.342v-7.396h4.272v14.134h-3.834v-2.164c-.493.804-1.123,1.438-1.891,1.904-.767.466-1.644.699-2.629.699-1.571,0-2.826-.502-3.767-1.507Z" fill="#501391"/>
      <path d="M470.49,42.036c-1.104-.447-2.031-1.027-2.779-1.739l2.574-2.575c.42.383.949.708,1.589.973.639.264,1.278.397,1.917.397,1.114,0,2.004-.292,2.671-.876.666-.585,1-1.416,1-2.493v-1.178c-.548.566-1.16,1-1.835,1.301-.676.301-1.37.452-2.082.452-1.242,0-2.374-.31-3.396-.931-1.023-.621-1.831-1.488-2.424-2.603-.594-1.113-.891-2.374-.891-3.78,0-1.351.311-2.575.932-3.67.62-1.096,1.456-1.954,2.506-2.575,1.05-.621,2.205-.932,3.465-.932.804,0,1.562.183,2.273.548.713.366,1.343.886,1.891,1.562v-1.753h3.834v13.559c0,1.37-.338,2.584-1.013,3.643-.676,1.059-1.603,1.88-2.78,2.465-1.178.584-2.479.876-3.903.876-1.26,0-2.442-.224-3.548-.671ZM476.723,31.669c.565-.658.849-1.552.849-2.685,0-1.022-.283-1.858-.849-2.506-.566-.648-1.324-.972-2.274-.972-.931,0-1.712.338-2.342,1.013-.63.676-.944,1.498-.944,2.465,0,1.096.287,1.981.862,2.657.575.676,1.329,1.014,2.26,1.014,1.059,0,1.872-.329,2.438-.986Z" fill="#501391"/>
      <path d="M487.528,36.188c-.777-.402-1.37-.945-1.781-1.63-.41-.685-.616-1.438-.616-2.26,0-1.351.603-2.47,1.808-3.355,1.206-.886,3.068-1.401,5.588-1.548l1.918-.109c0-.675-.233-1.205-.698-1.589-.466-.383-1.119-.575-1.959-.575-.749,0-1.488.124-2.219.37-.73.246-1.379.562-1.944.945l-2.384-2.383c.949-.712,2.018-1.278,3.205-1.698,1.187-.419,2.42-.63,3.698-.63,1.314,0,2.465.242,3.451.726s1.743,1.15,2.273,2c.529.849.794,1.804.794,2.862v8.984h-3.835v-1.698c-.547.694-1.219,1.232-2.013,1.616-.795.383-1.648.575-2.562.575-1.041,0-1.949-.201-2.725-.603ZM493.472,32.559c.648-.593.973-1.401.973-2.424v-.082l-1.425.082c-2.41.146-3.615.804-3.615,1.972,0,.366.154.681.466.945.31.265.721.397,1.232.397.932,0,1.721-.297,2.369-.89Z" fill="#501391"/>
      <path d="M504.962,35.764c-1.023-.648-1.826-1.547-2.41-2.698-.585-1.151-.877-2.456-.877-3.917,0-1.388.315-2.644.945-3.767s1.479-2,2.547-2.629,2.232-.945,3.492-.945c.694,0,1.356.142,1.986.425.63.283,1.2.689,1.712,1.219v-7.149h4.273v19.996h-3.835v-1.808c-.566.73-1.232,1.287-2,1.671s-1.57.575-2.41.575c-1.26,0-2.401-.325-3.424-.973ZM511.659,31.929c.575-.703.862-1.629.862-2.78,0-1.059-.283-1.931-.849-2.616-.566-.685-1.324-1.027-2.273-1.027-.932,0-1.722.347-2.37,1.041-.647.694-.972,1.562-.972,2.603,0,1.114.292,2.031.876,2.752.585.722,1.324,1.082,2.219,1.082,1.096,0,1.932-.351,2.507-1.055Z" fill="#501391"/>
      <path d="M523.601,35.818c-1.159-.648-2.063-1.547-2.711-2.698-.648-1.15-.973-2.465-.973-3.944,0-1.424.324-2.703.973-3.835.647-1.132,1.552-2.018,2.711-2.657,1.16-.639,2.479-.959,3.959-.959s2.798.32,3.958.959c1.159.639,2.062,1.525,2.711,2.657.648,1.132.973,2.411.973,3.835,0,1.479-.324,2.794-.973,3.944s-1.552,2.05-2.711,2.698c-1.16.648-2.479.973-3.958.973s-2.799-.325-3.959-.973ZM529.915,31.915c.603-.693.903-1.606.903-2.739,0-1.096-.297-1.972-.89-2.63-.594-.657-1.384-.986-2.369-.986s-1.776.329-2.37.986c-.594.658-.89,1.534-.89,2.63,0,1.132.301,2.045.903,2.739.603.694,1.388,1.041,2.356,1.041s1.753-.347,2.355-1.041Z" fill="#501391"/>
      <path d="M538.434,22.164h4.272v2.931c.292-.913.817-1.689,1.575-2.328s1.593-.959,2.507-.959c.675,0,1.323.119,1.944.356s1.169.548,1.644.931l-3.424,3.424c-.493-.292-1.032-.438-1.616-.438-.749,0-1.374.342-1.876,1.027-.503.685-.754,1.575-.754,2.671v6.519h-4.272v-14.134Z" fill="#501391"/>
      <path d="M557.223,32.956l6.245-5.67c.895-.803,1.543-1.456,1.945-1.958.401-.502.603-.981.603-1.438,0-.529-.229-.968-.686-1.315-.456-.347-1.059-.521-1.808-.521-.676,0-1.355.188-2.04.562-.686.375-1.302.835-1.85,1.383l-2.794-2.794c.84-.913,1.877-1.666,3.109-2.26,1.232-.593,2.479-.89,3.738-.89,1.352,0,2.548.256,3.589.767s1.844,1.205,2.41,2.082c.565.876.85,1.854.85,2.931,0,.913-.302,1.79-.904,2.629-.603.84-1.562,1.808-2.876,2.903l-3.479,2.876h7.971v4.054h-14.024v-3.342Z" fill="#501391"/>
    </g>
    <g clip-path="url(#d)">
      <use transform="translate(-5.449 -11.539) scale(.147)" xlink:href="#f"/>
    </g>
    <g clip-path="url(#e)">
      <use transform="translate(574.195 -11.539) scale(.147)" xlink:href="#f"/>
    </g>
    <polygon points="223.623 44.034 67.817 44.034 67.817 46.324 225.462 46.324 223.623 44.034" fill="#c9c9c9" opacity=".65"/>
    <polygon points="420.881 44.034 576.688 44.034 576.688 46.324 419.043 46.324 420.881 44.034" fill="#c9c9c9" opacity=".65"/>
  </g>
</svg>